<svg width="14" height="18" viewBox="0 0 14 18" fill="none" xmlns="http://www.w3.org/2000/svg">
<path id="Vector" d="M9.07757 7.28283L9.60272 7.39119L13.0787 9.12502C13.6622 9.31674 14.0456 9.8919 13.9956 10.5087V10.6171V10.7255L13.2454 15.8269C13.1954 16.1853 13.037 16.5188 12.7453 16.7522C12.4869 17.0022 12.1451 17.1273 11.7867 17.1273H6.05171C5.64326 17.1273 5.26816 16.9772 4.99308 16.6855L0 11.7091L0.750212 10.8755C0.950269 10.6671 1.26702 10.5504 1.56711 10.5671H1.80885L5.11811 11.2923V2.53982C5.11811 2.09767 5.29376 1.67362 5.60641 1.36097C5.91906 1.04833 6.3431 0.872681 6.78525 0.872681C7.22741 0.872681 7.65145 1.04833 7.9641 1.36097C8.27675 1.67362 8.45239 2.09767 8.45239 2.53982V7.28283H9.07757Z" fill="black"/>
</svg>
